<?xml version="1.0" encoding="UTF-8" standalone="no"?>
<!DOCTYPE svg PUBLIC "-//W3C//DTD SVG 1.1//EN" "http://www.w3.org/Graphics/SVG/1.1/DTD/svg11.dtd">
<svg version="1.1" xmlns="http://www.w3.org/2000/svg" xmlns:xlink="http://www.w3.org/1999/xlink" preserveAspectRatio="xMidYMid meet" viewBox="0 0 100 100" width="100" height="100"><defs><path d="M90.46 5C92.97 5 95 7.03 95 9.54C95 26.63 95 73.38 95 90.47C95 92.97 92.97 95 90.46 95C73.37 95 26.63 95 9.54 95C7.03 95 5 92.97 5 90.47C5 73.38 5 26.63 5 9.54C5 7.03 7.03 5 9.54 5C26.63 5 73.37 5 90.46 5Z" id="aszdAxPoS"></path><path d="M50.88 70.5L80 50L50.88 29.5L50.88 42.49L20 42.49L20 57.54L50.88 57.54L50.88 70.5Z" id="b10iX6L9w"></path></defs><g><g><g transform="matrix(1 0 0 1 7.105427357601002e-15 -0.0035767013606360365)" vector-effect="non-scaling-stroke"><use xlink:href="#aszdAxPoS" opacity="1" fill="#000000" fill-opacity="1"></use></g><g><use xlink:href="#b10iX6L9w" opacity="1" fill="#ffffff" fill-opacity="1"></use></g></g></g></svg>