<?xml version="1.0" encoding="UTF-8" standalone="no"?>
<!DOCTYPE svg PUBLIC "-//W3C//DTD SVG 1.1//EN" "http://www.w3.org/Graphics/SVG/1.1/DTD/svg11.dtd">
<svg version="1.1" xmlns="http://www.w3.org/2000/svg" xmlns:xlink="http://www.w3.org/1999/xlink" preserveAspectRatio="xMidYMid meet" viewBox="0 0 100 100" width="100" height="100"><defs><path d="M92.48 5C93.87 5 95 6.12 95 7.52C95 25.01 95 74.98 95 92.48C95 93.87 93.87 95 92.48 95C82.98 95 57.02 95 47.52 95C46.13 95 45 93.87 45 92.48C45 74.98 45 25.01 45 7.52C45 6.12 46.13 5 47.52 5C57.02 5 82.98 5 92.48 5Z" id="akq433jy"></path><path d="M91.5 42.29C96.06 46.86 96.06 54.26 91.5 58.83C83.23 67.09 66.71 83.61 58.45 91.88C53.88 96.44 46.48 96.44 41.91 91.88C33.47 83.44 16.42 66.39 7.99 57.95C3.42 53.39 3.42 45.98 7.99 41.42C16.25 33.15 32.77 16.63 41.03 8.37C45.6 3.8 53 3.8 57.57 8.37C66.01 16.81 83.06 33.85 91.5 42.29Z" id="bLlEFC2on"></path><path d="M67.18 50L80 62.82L72.82 70L60 57.18L47.18 70L40 62.82L52.82 50L40 37.18L47.18 30L60 42.82L72.82 30L80 37.18L67.18 50Z" id="a5YiVn3Q"></path></defs><g><g><g><use xlink:href="#akq433jy" opacity="1" fill="#000000" fill-opacity="1"></use></g><g><use xlink:href="#bLlEFC2on" opacity="1" fill="#000000" fill-opacity="1"></use></g><g><use xlink:href="#a5YiVn3Q" opacity="1" fill="#ffffff" fill-opacity="1"></use></g></g></g></svg>