<?xml version="1.0" encoding="UTF-8" standalone="no"?>
<!DOCTYPE svg PUBLIC "-//W3C//DTD SVG 1.1//EN" "http://www.w3.org/Graphics/SVG/1.1/DTD/svg11.dtd">
<svg version="1.1" xmlns="http://www.w3.org/2000/svg" xmlns:xlink="http://www.w3.org/1999/xlink" preserveAspectRatio="xMidYMid meet" viewBox="0 0 100 100" width="100" height="100"><defs><path d="M50.58 21.83L50.45 18.22L51.17 14.25L53.72 11.8L57.48 11.19L61.01 11.98L65.03 11.56L68.17 9.91L69.22 6.57L68.42 3.07L66.34 0" id="cg1xJCiPT"></path><path d="M74.75 40.85C75.44 40.85 76.01 41.42 76.01 42.12C76.01 48.52 76.01 66.46 76.01 72.86C76.01 73.56 75.44 74.12 74.75 74.12C64.96 74.12 36.84 74.12 27.05 74.12C26.36 74.12 25.79 73.56 25.79 72.86C25.79 66.46 25.79 48.52 25.79 42.12C25.79 41.42 26.36 40.85 27.05 40.85C36.84 40.85 64.96 40.85 74.75 40.85Z" id="d2cWVehv0P"></path><path d="M76.1 45.85C76.1 62.31 64.81 75.68 50.9 75.68C36.99 75.68 25.7 62.31 25.7 45.85C25.7 29.38 36.99 16.01 50.9 16.01C64.81 16.01 76.1 29.38 76.1 45.85Z" id="ayIxseZ1R"></path><path d="M76.1 70.16C76.1 86.63 64.81 100 50.9 100C36.99 100 25.7 86.63 25.7 70.16C25.7 53.7 36.99 40.33 50.9 40.33C64.81 40.33 76.1 53.7 76.1 70.16Z" id="a19mayWmC0"></path><path d="M25.63 40.2L25.78 38.85L26 37.52L26.27 36.22L26.6 34.94L26.99 33.69L27.43 32.47L27.92 31.27L28.46 30.11L29.05 28.98L29.69 27.89L30.37 26.83L31.1 25.82L31.87 24.84L32.68 23.9L33.53 23.01L34.42 22.16L35.35 21.36L36.31 20.61L37.3 19.91L38.33 19.26L39.38 18.67L40.47 18.13L41.58 17.65L42.72 17.22L43.88 16.86L45.06 16.56L46.27 16.32L47.5 16.15L48.74 16.04L50 16.01L50 42.95L25.5 42.95L25.53 41.56L25.63 40.2Z" id="brsgoTcpr"></path><path d="M76.1 43.57L25.7 43.57L76.1 43.57Z" id="a2eHOHgKAQ"></path><path d="M50.73 16.1L50.73 44.1L50.73 16.1Z" id="bSkXz8cBn"></path><path d="M55.9 44.1C55.9 47.87 53.66 50.94 50.9 50.94C48.14 50.94 45.9 47.87 45.9 44.1C45.9 40.32 48.14 37.25 50.9 37.25C53.66 37.25 55.9 40.32 55.9 44.1Z" id="b47oXKfkw1"></path></defs><g><g><path></path><g><g><use xlink:href="#cg1xJCiPT" opacity="1" fill-opacity="0" stroke="#000000" stroke-width="5" stroke-opacity="1"></use></g></g><g><g><use xlink:href="#d2cWVehv0P" opacity="1" fill="#000000" fill-opacity="1"></use></g><g><use xlink:href="#ayIxseZ1R" opacity="1" fill="#000000" fill-opacity="1"></use></g><g><use xlink:href="#a19mayWmC0" opacity="1" fill="#000000" fill-opacity="1"></use></g></g><g><use xlink:href="#brsgoTcpr" opacity="1" fill="#ffffff" fill-opacity="1"></use></g><g><g><use xlink:href="#a2eHOHgKAQ" opacity="1" fill-opacity="0" stroke="#ffffff" stroke-width="2" stroke-opacity="1"></use></g></g><g><g><use xlink:href="#bSkXz8cBn" opacity="1" fill-opacity="0" stroke="#ffffff" stroke-width="2" stroke-opacity="1"></use></g></g><g><use xlink:href="#b47oXKfkw1" opacity="1" fill="#000000" fill-opacity="1"></use><g><use xlink:href="#b47oXKfkw1" opacity="1" fill-opacity="0" stroke="#ffffff" stroke-width="2" stroke-opacity="1"></use></g></g></g></g></svg>